<?xml version="1.0" standalone="no"?><!DOCTYPE svg PUBLIC "-//W3C//DTD SVG 1.1//EN" "http://www.w3.org/Graphics/SVG/1.1/DTD/svg11.dtd"><svg t="1600322047373" class="icon" viewBox="0 0 1024 1024" version="1.1" xmlns="http://www.w3.org/2000/svg" p-id="3111" xmlns:xlink="http://www.w3.org/1999/xlink" width="200" height="200"><defs><style type="text/css"></style></defs><path d="M160 208a128 128 0 1 0 128 128 128 128 0 0 0-128-128z m352 0a128 128 0 1 0 128 128 128 128 0 0 0-128-128z m352 256a128 128 0 1 0-128-128 128 128 0 0 0 128 128z m-704 96a128 128 0 1 0 128 128 128 128 0 0 0-128-128z m352 0a128 128 0 1 0 128 128 128 128 0 0 0-128-128z m352 0a128 128 0 1 0 128 128 128 128 0 0 0-128-128z" fill="#231F20" p-id="3112"></path></svg>